<svg width="100" height="33" viewBox="0 0 100 33" fill="none" xmlns="http://www.w3.org/2000/svg">
<path d="M0 0V32.1883H6.02237L11.4963 17.6899L16.9263 32.1883H18.2097L11.6718 15.0688H11.3975L5.18867 31.1136H1.05309V0.976068H33.3918V31.1794H25.2852C25.3181 31.1794 25.3839 31.1355 25.4168 31.1245C25.5375 31.0697 25.6581 31.0039 25.7788 30.9381C26.1957 30.6968 26.5796 30.4117 26.9306 30.0827C27.4462 29.6111 27.896 29.0518 28.258 28.4486C28.7406 27.648 29.0588 26.7596 29.2562 25.8494C29.5634 24.4346 29.5634 23.0308 29.2343 21.6271C29.2014 21.4955 29.1684 21.3748 29.1355 21.2432C28.971 20.6291 28.7516 20.0368 28.4554 19.4775C28.2031 18.984 27.896 18.5234 27.5449 18.1066C27.2268 17.7228 26.8758 17.3828 26.4918 17.0757C26.1408 16.7906 25.7678 16.5493 25.3729 16.33C25.0219 16.1326 24.6599 15.968 24.2869 15.8255C23.9688 15.7048 23.6507 15.6061 23.3216 15.5184C22.9706 15.4307 22.6086 15.3539 22.2466 15.321C21.8626 15.2771 21.4787 15.2991 21.0947 15.2991C20.7876 15.2991 20.4695 15.2991 20.1623 15.2991C19.5919 15.2991 19.0215 15.2991 18.4401 15.2991C18.3304 15.2991 18.2207 15.2991 18.111 15.2991V21.1335H19.197V16.3629C19.6138 16.3629 20.0307 16.3629 20.4475 16.3629C20.7327 16.3629 21.0289 16.3629 21.3141 16.3629C21.6761 16.3629 22.0381 16.3409 22.3892 16.4067C22.4879 16.4287 22.5866 16.4506 22.6744 16.4725C22.9486 16.5383 23.2119 16.6151 23.4752 16.7138C23.8152 16.8344 24.1553 16.977 24.4734 17.1525C24.8464 17.3499 25.2084 17.5802 25.5484 17.8434C25.9324 18.1395 26.2724 18.4685 26.5796 18.8414C26.9306 19.2582 27.2158 19.7188 27.4572 20.2013C27.7314 20.7607 27.9289 21.3638 28.0495 21.978C28.3018 23.1734 28.2689 24.3688 28.0057 25.5642C27.8192 26.3977 27.5011 27.1983 27.0403 27.9112C26.6564 28.5144 26.1737 29.0518 25.6143 29.5014C25.1316 29.8962 24.5831 30.2143 24.0237 30.4665C23.552 30.6749 23.0583 30.8504 22.5537 30.971C22.2137 31.0587 21.8626 31.1245 21.5116 31.1574C21.4897 31.1574 21.1715 31.1903 21.1715 31.1903V32.1993H34.39V0H0Z" fill="white"/>
<path d="M50.5705 15.6946C49.3529 14.7405 47.6087 14.6199 46.1497 14.9598C45.9413 15.0037 45.7438 15.0695 45.5464 15.1463C44.7456 15.4643 44.0764 16.0346 43.5828 16.7365C43.166 17.3287 42.8698 18.0306 42.7381 18.7435C42.7381 18.9738 42.6723 19.226 42.6613 19.4563C42.6504 19.6757 42.6394 19.895 42.6394 20.1253C42.6613 21.6059 42.6833 23.0864 42.6833 24.556C42.6833 25.1811 42.6833 25.7953 42.6833 26.4204H43.9119C43.9119 26.4204 43.9119 24.2051 43.9119 24.0735C43.9119 23.7664 43.9119 23.4483 43.9119 23.1413H51.0422C51.0422 23.6896 51.0422 24.238 51.0422 24.7863C51.0422 25.3347 51.0422 25.883 51.0422 26.4314H52.2708C52.2708 26.4314 52.2708 25.4772 52.2708 25.4334C52.2708 24.3915 52.2708 23.3387 52.2708 22.2968C52.2708 21.3536 52.2708 20.4214 52.2708 19.4783C52.2708 18.0196 51.7223 16.5939 50.5705 15.6946ZM51.0422 21.4962C51.0422 21.6607 51.0422 21.8252 51.0422 21.9788H43.9119C43.9119 21.902 43.9119 21.8252 43.9119 21.7375C43.9119 20.8272 43.857 19.9169 43.9119 19.0176C43.9558 18.4254 44.219 17.8113 44.5372 17.3178C44.976 16.6488 45.667 16.1881 46.4459 16.0127C47.7952 15.7056 49.5284 15.9578 50.395 17.1313C50.746 17.6139 50.9874 18.1951 51.0312 18.7983C51.108 19.6866 51.0422 20.6079 51.0422 21.4962Z" fill="white"/>
<path d="M75.0768 15.6946C73.8592 14.7405 72.115 14.6199 70.6561 14.9598C70.4476 15.0037 70.2502 15.0695 70.0527 15.1463C69.2519 15.4643 68.5828 16.0346 68.0891 16.7365C67.6723 17.3287 67.3761 18.0306 67.2445 18.7435C67.2445 18.9738 67.1787 19.226 67.1677 19.4563C67.1567 19.6757 67.1458 19.895 67.1458 20.1253C67.1677 21.6059 67.1896 23.0864 67.1896 24.556C67.1896 25.1811 67.1896 25.7953 67.1896 26.4204H68.4182C68.4182 26.4204 68.4182 24.2051 68.4182 24.0735C68.4182 23.7664 68.4182 23.4483 68.4182 23.1413H75.5485C75.5485 23.6896 75.5485 24.238 75.5485 24.7863C75.5485 25.3347 75.5485 25.883 75.5485 26.4314H76.7772C76.7772 26.4314 76.7772 25.4772 76.7772 25.4334C76.7772 24.3915 76.7772 23.3387 76.7772 22.2968C76.7772 21.3536 76.7772 20.4214 76.7772 19.4783C76.7881 18.0196 76.2287 16.5939 75.0768 15.6946ZM75.5485 21.4962C75.5485 21.6607 75.5485 21.8252 75.5485 21.9788H68.4182C68.4182 21.902 68.4182 21.8252 68.4182 21.7375C68.4182 20.8272 68.3634 19.9169 68.4182 19.0176C68.4621 18.4254 68.7254 17.8113 69.0435 17.3178C69.4823 16.6488 70.1734 16.1881 70.9522 16.0127C72.3015 15.7056 74.0347 15.9578 74.9013 17.1313C75.2524 17.6139 75.4937 18.1951 75.5376 18.7983C75.6144 19.6866 75.5485 20.6079 75.5485 21.4962Z" fill="white"/>
<path d="M64.9624 18.7749C64.765 15.0132 61.0791 14.8926 61.0791 14.8926H55.9453V26.408H57.2288V22.7889H60.9475C60.9475 22.7889 65.0721 22.5147 64.9624 18.7749ZM60.8049 21.7251H57.2178V16.0112H61.0023C61.0023 16.0112 63.7667 16.1099 63.7667 18.7749C63.7557 21.5167 60.8049 21.7251 60.8049 21.7251Z" fill="white"/>
<path d="M86.8143 22.4708C87.999 22.0431 89.5019 21.0561 89.436 18.7749C89.2386 15.0132 85.5528 14.8926 85.5528 14.8926H80.4189V26.408H81.7024V22.7889H85.4211C85.4211 22.7889 85.5418 22.7779 85.7283 22.756L88.2294 26.408H89.6554L86.8143 22.4708ZM85.2785 21.7251H81.6914V16.0112H85.476C85.476 16.0112 88.2403 16.1099 88.2403 18.7749C88.2294 21.5167 85.2785 21.7251 85.2785 21.7251Z" fill="white"/>
<path d="M100 16.0554C100 16.0554 97.7952 14.7832 95.1954 14.7832C92.5955 14.7832 90.3906 16.0554 90.3906 16.0554L90.8404 17.0424C90.8404 17.0424 92.431 16.0115 94.5591 15.836V26.4083H95.7877V15.836C97.9158 16.0115 99.5613 17.0424 99.5613 17.0424L100 16.0554Z" fill="white"/>
<path d="M44.5918 27.877L42.7927 27.8989V29.862V29.9059V31.869L44.5918 31.8909C44.6466 31.8909 44.7124 31.8799 44.7673 31.8799C44.9099 31.858 45.0525 31.8251 45.1951 31.7703C45.3816 31.7045 45.5681 31.6058 45.7216 31.4851C45.9191 31.3316 46.0836 31.1451 46.2043 30.9258C46.303 30.7503 46.3798 30.5639 46.4237 30.3774C46.4676 30.2239 46.4895 30.0704 46.5005 29.9059C46.5005 29.7414 46.4785 29.5878 46.4347 29.4233C46.4018 29.2698 46.3469 29.1162 46.2811 28.9737C46.1714 28.7434 46.0178 28.524 45.8313 28.3485C45.6778 28.206 45.4913 28.0963 45.3048 28.0195C45.1622 27.9537 44.9976 27.9099 44.8441 27.8879C44.7563 27.8879 44.6795 27.877 44.5918 27.877C44.6027 27.877 44.5918 27.877 44.5918 27.877ZM46.1275 29.9278C46.0398 31.4413 44.5698 31.5729 44.5698 31.5729H43.1328V29.9059V29.862V28.195H44.5698C44.5698 28.195 46.0398 28.3266 46.1275 29.8401V29.9278Z" fill="white"/>
<path d="M49.9451 30.1593C49.8464 29.4246 49.243 28.8652 48.508 28.8652C47.7073 28.8652 47.0491 29.5452 47.0491 30.3787C47.0491 31.2122 47.6963 31.8921 48.508 31.8921C48.9797 31.8921 49.4734 31.7167 49.7476 31.3548L49.5282 31.1903C49.3088 31.4535 48.87 31.596 48.508 31.596C47.9925 31.596 47.5646 31.2561 47.4111 30.7735L49.956 30.2471V30.1593H49.9451ZM47.3343 30.3787C47.3343 29.7097 47.8608 29.1613 48.4971 29.1613C49.0346 29.1613 49.4843 29.5342 49.616 30.0497L47.3343 30.4993C47.3343 30.4555 47.3343 30.4226 47.3343 30.3787Z" fill="white"/>
<path d="M56.2195 30.1593C56.1208 29.4246 55.5174 28.8652 54.7825 28.8652C53.9817 28.8652 53.3235 29.5452 53.3235 30.3787C53.3235 31.2122 53.9707 31.8921 54.7825 31.8921C55.2542 31.8921 55.7478 31.7167 56.022 31.3548L55.8026 31.1903C55.5832 31.4535 55.1445 31.596 54.7825 31.596C54.2669 31.596 53.8391 31.2561 53.6855 30.7735L56.2305 30.2471V30.1593H56.2195ZM53.6087 30.3787C53.6087 29.7097 54.1352 29.1613 54.7715 29.1613C55.309 29.1613 55.7588 29.5342 55.8904 30.0497L53.6087 30.4993C53.6087 30.4555 53.6087 30.4226 53.6087 30.3787Z" fill="white"/>
<path d="M74.6487 30.1593C74.55 29.4246 73.9466 28.8652 73.2117 28.8652C72.4109 28.8652 71.7527 29.5452 71.7527 30.3787C71.7527 31.2122 72.3999 31.8921 73.2117 31.8921C73.6834 31.8921 74.177 31.7167 74.4512 31.3548L74.2318 31.1903C74.0124 31.4535 73.5737 31.596 73.2117 31.596C72.6961 31.596 72.2683 31.2561 72.1147 30.7735L74.6597 30.2471V30.1593H74.6487ZM72.0489 30.3787C72.0489 29.7097 72.5754 29.1613 73.2117 29.1613C73.7492 29.1613 74.1989 29.5342 74.3306 30.0497L72.0489 30.4993C72.0489 30.4555 72.0489 30.4226 72.0489 30.3787Z" fill="white"/>
<path d="M59.8507 28.8652C59.017 28.8652 58.3369 29.5452 58.3369 30.3787C58.3369 31.2122 59.017 31.8921 59.8507 31.8921C60.6844 31.8921 61.3646 31.2122 61.3646 30.3787C61.3646 29.5452 60.6954 28.8652 59.8507 28.8652ZM59.8507 31.5631C59.1925 31.5631 58.666 31.0367 58.666 30.3787C58.666 29.7207 59.1925 29.1942 59.8507 29.1942C60.5089 29.1942 61.0355 29.7207 61.0355 30.3787C61.0355 31.0367 60.5089 31.5631 59.8507 31.5631Z" fill="white"/>
<path d="M63.6791 28.8652C63.1964 28.8652 62.7686 29.0846 62.4944 29.4355V28.8652H62.1653V32.9998H62.4944V31.3328C62.7686 31.6838 63.1964 31.9031 63.6791 31.9031C64.5128 31.9031 65.1929 31.2231 65.1929 30.3897C65.1929 29.5562 64.5238 28.8652 63.6791 28.8652ZM63.6791 31.5631C63.0209 31.5631 62.4944 31.0367 62.4944 30.3787C62.4944 29.7207 63.0209 29.1942 63.6791 29.1942C64.3373 29.1942 64.8638 29.7207 64.8638 30.3787C64.8638 31.0367 64.3373 31.5631 63.6791 31.5631Z" fill="white"/>
<path d="M52.775 28.8652L51.6013 31.4644L50.4385 28.8652H50.1204L51.4477 31.9031H51.6013H51.7658L53.0822 28.8652H52.775Z" fill="white"/>
<path d="M58.1394 31.5629C58.1504 31.552 57.7445 31.6616 57.5141 31.5629C57.3386 31.4862 57.3386 31.3107 57.3386 31.3107V27.6367H57.0095V31.3217C57.0095 31.3217 57.0205 31.7384 57.4154 31.8481C57.6896 31.9139 58.1723 31.8481 58.1723 31.8481L58.1394 31.5629Z" fill="white"/>
<path d="M80.6276 31.4752C80.6386 31.4642 80.134 31.6617 79.8159 31.5739C79.6623 31.5301 79.6404 31.3217 79.6404 31.3217V29.1831H80.5509V28.8541H79.6404V28.207H79.3113V31.3217C79.3113 31.3217 79.3222 31.7384 79.7172 31.8481C80.123 31.9358 80.6935 31.7494 80.6935 31.7494L80.6276 31.4752Z" fill="white"/>
<path d="M78.1483 29.7979C78.1374 29.7431 78.1154 29.6772 78.0935 29.6224C78.0606 29.5566 78.0277 29.4798 77.9838 29.425C77.8741 29.2605 77.7424 29.107 77.5669 29.0083C77.3804 28.8986 77.161 28.8438 76.9417 28.8438C76.2835 28.8767 75.9873 29.1947 75.8557 29.4908V28.8657H75.4937V31.9036H75.8557V29.9295C75.9654 29.6114 76.2286 29.1399 76.8868 29.1289C77.172 29.1179 77.4682 29.2057 77.6437 29.4579C77.7534 29.6114 77.7863 29.765 77.7863 29.9405C77.7863 30.0392 77.7863 30.1379 77.7863 30.2366C77.7863 30.5107 77.7863 30.774 77.7863 31.0481C77.7863 31.2784 77.7863 31.5197 77.7863 31.75C77.7863 31.761 77.7863 31.9036 77.7863 31.9036H78.1703C78.1703 31.8268 78.1703 31.75 78.1703 31.6733C78.1703 31.4978 78.1703 31.3113 78.1703 31.1359C78.1703 30.9275 78.1703 30.7081 78.1703 30.4998C78.1703 30.3243 78.1703 30.1598 78.1703 29.9843C78.1483 29.9185 78.1483 29.8637 78.1483 29.7979Z" fill="white"/>
<path d="M69.7343 28.8438C68.9664 28.8767 68.6922 29.3044 68.5935 29.6224C68.4618 29.3373 68.1437 28.8438 67.4417 28.8438C66.7835 28.8767 66.4873 29.1947 66.3557 29.4908V28.8657H65.9937V31.9036H66.3557V29.9295C66.4653 29.6114 66.7286 29.1399 67.3868 29.1289C67.672 29.1179 67.9682 29.2057 68.1437 29.4579C68.2534 29.6114 68.2863 29.765 68.2863 29.9405C68.2863 30.0392 68.2863 30.1379 68.2863 30.2366C68.2863 30.5107 68.2863 30.774 68.2863 31.0481C68.2863 31.2784 68.2863 31.5197 68.2863 31.75C68.2863 31.761 68.2863 31.9036 68.2863 31.9036H68.6703C68.6703 31.9036 68.6703 30.083 68.6703 29.8747C68.6703 29.6663 69.0652 29.1399 69.6795 29.1399C69.9647 29.1289 70.2609 29.2166 70.4364 29.4689C70.5461 29.6224 70.579 29.7759 70.579 29.9514C70.579 30.0501 70.579 30.1488 70.579 30.2475C70.579 30.5217 70.579 30.7849 70.579 31.0591C70.579 31.2894 70.579 31.5307 70.579 31.761C70.579 31.772 70.579 31.9145 70.579 31.9145H70.9629C70.9629 31.7829 70.9629 31.6513 70.9629 31.5197C70.9629 31.2455 70.9629 30.9714 70.9629 30.6972C70.9629 30.4559 70.9629 30.2146 70.9629 29.9843C70.9629 29.9076 70.9629 29.8308 70.941 29.765C70.93 29.7321 70.919 29.7101 70.9081 29.6772C70.8752 29.5895 70.8313 29.5018 70.7764 29.425C70.6338 29.2057 70.4364 29.0192 70.1841 28.9315C70.0415 28.8657 69.8879 28.8438 69.7343 28.8438Z" fill="white"/>
</svg>
