<svg width="10" height="10" viewBox="0 0 10 10" fill="none" xmlns="http://www.w3.org/2000/svg">
<path d="M9.80359 5.50247C9.73146 5.44113 9.64405 5.40186 9.5513 5.38913C9.45855 5.37641 9.36419 5.39074 9.27897 5.43049C8.75065 5.67927 8.17622 5.80731 7.59521 5.8058C6.52043 5.80446 5.48974 5.36594 4.72789 4.58586C3.96603 3.80577 3.53479 2.74738 3.5282 1.64146C3.53048 1.29486 3.5724 0.949743 3.65311 0.613231C3.67023 0.523538 3.66381 0.430768 3.6345 0.344479C3.60519 0.25819 3.55405 0.181503 3.48635 0.122318C3.41865 0.0631331 3.33684 0.0235906 3.24935 0.00776447C3.16186 -0.00806167 3.07185 0.000400867 2.98859 0.0322803C2.20533 0.394685 1.52446 0.956023 1.00993 1.66356C0.4954 2.3711 0.16411 3.20161 0.0471802 4.07708C-0.0697492 4.95254 0.03152 5.84423 0.341474 6.66836C0.651429 7.4925 1.15989 8.22203 1.8191 8.78842C2.47831 9.35482 3.26663 9.73949 4.10999 9.90629C4.95336 10.0731 5.82409 10.0166 6.64039 9.74199C7.45668 9.46742 8.19175 8.98384 8.77654 8.33667C9.36133 7.6895 9.77664 6.89998 9.98345 6.04229C10.0086 5.94409 10.005 5.84042 9.97299 5.74434C9.94098 5.64827 9.88203 5.56411 9.80359 5.50247ZM5.05707 8.9419C4.21857 8.93582 3.40239 8.66319 2.72029 8.16134C2.03818 7.65949 1.5235 6.95297 1.24672 6.1385C0.969928 5.32403 0.944564 4.44143 1.1741 3.61156C1.40363 2.78168 1.87684 2.04509 2.52893 1.50265V1.64146C2.53026 3.02365 3.06445 4.34884 4.01427 5.3262C4.9641 6.30356 6.25195 6.85323 7.59521 6.8546C7.94789 6.85593 8.29968 6.818 8.64444 6.74149C8.29965 7.41268 7.78331 7.97426 7.15111 8.36565C6.51892 8.75705 5.79487 8.96341 5.05707 8.96247V8.9419Z" fill="white"/>
</svg>
