<svg width="180" height="129" viewBox="0 0 180 129" fill="none" xmlns="http://www.w3.org/2000/svg">
<g opacity="0.1" clip-path="url(#clip0_688_516)">
<path d="M0 0L74.7107 0.0378371H77.1483V2.30723C77.1483 26.736 77.1483 51.1648 77.1483 75.5936C77.1289 76.8118 76.8402 78.0106 76.303 79.1036C68.3188 95.2238 60.2591 111.314 52.2673 127.434C52.0854 127.943 51.7375 128.375 51.2801 128.66C50.8226 128.946 50.2823 129.068 49.7468 129.008C38.0949 128.955 26.4355 129.008 14.7761 129.008H12.8291L38.4496 77.5679C37.9822 77.4925 37.5111 77.442 37.0384 77.4167H1.03387C0.686882 77.4376 0.341568 77.4805 0 77.5452V0Z" fill="#121927"/>
<path d="M115.711 128.97L141.369 77.4316H102.958V0.173828H179.932V1.9364C179.932 26.5972 179.932 51.2605 179.932 75.9263C179.91 76.9088 179.673 77.8746 179.238 78.7554C171.188 94.974 163.124 111.188 155.044 127.396C154.872 127.906 154.533 128.342 154.082 128.633C153.631 128.925 153.095 129.054 152.561 129C140.902 128.939 129.242 129 117.59 129L115.711 128.97Z" fill="#121927"/>
</g>
<defs>
<clipPath id="clip0_688_516">
<rect width="180" height="129" fill="white"/>
</clipPath>
</defs>
</svg>
