<svg width="180" height="55" viewBox="0 0 180 55" fill="none" xmlns="http://www.w3.org/2000/svg">
<path d="M102 51.5059V37.492C102 36.3937 102.257 35.537 102.771 34.9218C103.285 34.3065 104.149 33.9993 105.365 34C106.58 34 107.444 34.3072 107.959 34.9218C108.474 35.5363 108.73 36.393 108.729 37.492V51.5059C108.729 52.6049 108.472 53.4616 107.959 54.0761C107.446 54.6906 106.581 54.9982 105.365 54.9989C104.149 54.9989 103.284 54.6913 102.771 54.0761C102.258 53.4609 102.001 52.6042 102 51.5059ZM103.922 51.4494C103.922 52.0888 104.022 52.5789 104.22 52.9103C104.418 53.2417 104.799 53.4058 105.365 53.4058C105.931 53.4058 106.312 53.2407 106.51 52.9103C106.708 52.58 106.806 52.093 106.806 51.4494V37.5485C106.806 36.9091 106.708 36.4246 106.51 36.095C106.312 35.7654 105.931 35.6023 105.365 35.6059C104.799 35.6059 104.418 35.7689 104.22 36.095C104.022 36.4211 103.923 36.9056 103.922 37.5485V51.4494Z" fill="#121927"/>
<path d="M111.959 54.8307V34.1675H113.881V53.2249H117.034V54.8307H111.959Z" fill="#121927"/>
<path d="M119.839 54.8307V34.1675H123.103C124.325 34.1675 125.17 34.4492 125.64 35.0125C126.109 35.5759 126.342 36.412 126.337 37.521V51.4805C126.337 52.5887 126.104 53.4245 125.638 53.9879C125.171 54.5512 124.326 54.8322 123.103 54.8307H119.839ZM121.748 53.2249H122.751C123.383 53.2249 123.821 53.1105 124.066 52.8817C124.31 52.653 124.433 52.2363 124.433 51.6318V37.3803C124.433 36.775 124.311 36.3559 124.066 36.1229C123.821 35.8899 123.383 35.7737 122.751 35.7744H121.748V53.2249Z" fill="#121927"/>
<path d="M133.129 35.7744V34.1675H139.318V35.7744H137.183V54.8307H135.275V35.7744H133.129Z" fill="#121927"/>
<path d="M141.742 54.8307V34.1675H145.3C146.317 34.1675 147.065 34.3234 147.541 34.6353C148.018 34.9471 148.256 35.583 148.255 36.5427V41.7813C148.255 42.5734 148.095 43.1371 147.774 43.4724C147.453 43.8077 146.921 43.9892 146.176 44.0169V44.0734C146.895 44.1011 147.434 44.257 147.793 44.5412C148.153 44.8254 148.332 45.3074 148.332 45.9872V52.4598C148.346 52.8804 148.279 53.2998 148.135 53.6959C148.017 54.0006 147.798 54.2568 147.513 54.4226C147.227 54.5865 146.913 54.6977 146.587 54.7508C146.159 54.8127 145.726 54.8405 145.293 54.8339L141.742 54.8307ZM143.664 43.3051H144.936C145.417 43.3051 145.773 43.1985 146.004 42.9854C146.234 42.7723 146.35 42.3787 146.351 41.8047V37.1714C146.351 36.6123 146.219 36.2397 145.955 36.0536C145.691 35.8675 145.281 35.7744 144.725 35.7744H143.664V43.3051ZM143.664 53.2249H144.824C145.379 53.2249 145.787 53.1314 146.047 52.9446C146.307 52.7578 146.436 52.3855 146.435 51.8279V46.1545C146.435 45.6803 146.308 45.3511 146.053 45.1699C145.799 44.9888 145.427 44.8939 144.936 44.8939H143.664V53.2249Z" fill="#121927"/>
<path d="M151.659 54.8307V34.1675H153.581V54.8307H151.659Z" fill="#121927"/>
<path d="M156.81 54.8307V34.1675H158.733V53.2249H161.885V54.8307H156.81Z" fill="#121927"/>
<path d="M164.592 54.8307V34.1675H166.514V54.8307H164.592Z" fill="#121927"/>
<path d="M169.207 51.9673V49.1306H171.115V51.8554C171.115 52.889 171.52 53.4058 172.331 53.4058C173.104 53.4058 173.49 52.889 173.49 51.8554V48.9633C173.484 48.2702 173.294 47.5907 172.939 46.993L170.126 42.1594C169.874 41.7496 169.667 41.3136 169.511 40.8593C169.377 40.4246 169.313 39.972 169.32 39.5177V37.0317C169.32 36.0257 169.577 35.2688 170.091 34.7608C170.605 34.2529 171.351 33.9993 172.331 34C173.386 34 174.152 34.2398 174.629 34.7193C175.105 35.1988 175.343 35.9231 175.342 36.8921V39.5177H173.434V37.0082C173.434 36.5617 173.353 36.2165 173.194 35.9746C173.034 35.7327 172.746 35.6112 172.331 35.6112C171.916 35.6112 171.629 35.7327 171.469 35.9746C171.308 36.2165 171.228 36.5617 171.228 37.0082V39.1885C171.228 39.9337 171.374 40.5532 171.667 41.0469L174.706 46.2023C175.169 46.9607 175.409 47.8316 175.398 48.7172V51.9726C175.398 52.9416 175.127 53.6875 174.585 54.2104C174.044 54.7332 173.292 54.9964 172.331 55C171.266 55 170.479 54.7553 169.97 54.2658C169.461 53.7763 169.207 53.0101 169.207 51.9673Z" fill="#121927"/>
<path d="M178.078 54.8307V34.1675H180V54.8307H178.078Z" fill="#121927"/>
<path d="M13.9531 15.4847H9.07869V54.4051H4.87662V15.4847H0V11.9141H13.9531V15.4847Z" fill="#121927"/>
<path d="M46.3677 25.9585V18.8821C46.3677 17.7718 46.1137 16.8793 45.6058 16.2047C45.0978 15.53 44.316 15.1927 43.2603 15.1927C42.2437 15.1927 41.4719 15.53 40.9448 16.2047C40.4177 16.8793 40.1538 17.7718 40.153 18.8821V47.4417C40.153 48.5534 40.4169 49.4462 40.9448 50.1202C41.4726 50.7941 42.2445 51.1311 43.2603 51.1311C44.316 51.1311 45.0978 50.7941 45.6058 50.1202C46.1137 49.4462 46.3677 48.5534 46.3677 47.4417V36.0753H43.6253V32.5047H50.6328V47.7992C50.6328 50.0205 49.9523 51.7759 48.5914 53.0655C47.2306 54.355 45.4535 54.9998 43.2603 54.9998C41.1062 54.9998 39.3495 54.355 37.9901 53.0655C36.6306 51.7759 35.9502 50.0205 35.9487 47.7992V18.5192C35.9487 16.2986 36.6292 14.5432 37.9901 13.2529C39.3509 11.9626 41.1077 11.3189 43.2603 11.3218C45.4528 11.3218 47.2298 11.9666 48.5914 13.2561C49.9531 14.5457 50.6335 16.3011 50.6328 18.5224V25.9618L46.3677 25.9585Z" fill="#121927"/>
<path d="M66.2477 32.5273H59.5498V36.098H66.2477V32.5273Z" fill="#121927"/>
<path d="M60.0157 29.589V27.8004V11.9141H55.8125V54.4051H60.0157V34.2051V33.1596V29.589Z" fill="#121927"/>
<path d="M66.1094 11.9141V27.8004V29.589V33.1596V34.2051V54.4051H70.3126V11.9141H66.1094Z" fill="#121927"/>
<path d="M75.7969 12H79.999V54.4911H75.7969V12Z" fill="#121927"/>
<path d="M29.8092 1.93436C28.4483 0.645506 26.6713 0.000720029 24.4781 0C22.3255 0 20.5687 0.644786 19.2078 1.93436C17.8469 3.22393 17.1665 4.97936 17.1665 7.20065V54.405H21.3686V7.55814C21.3686 6.44786 21.6325 5.55502 22.1603 4.87964C22.6882 4.20425 23.4608 3.86764 24.4781 3.8698C25.5345 3.8698 26.3163 4.20677 26.8235 4.88071C27.3307 5.55466 27.5847 6.4475 27.5854 7.55922V54.405H31.8505V7.20065C31.8505 4.98008 31.1701 3.22465 29.8092 1.93436Z" fill="#121927"/>
</svg>
