<svg width="80" height="55" viewBox="0 0 80 55" fill="none" xmlns="http://www.w3.org/2000/svg">
<path d="M13.9531 15.4847H9.07869V54.4051H4.87662V15.4847H0V11.9141H13.9531V15.4847Z" fill="black"/>
<path d="M46.3677 25.9585V18.8821C46.3677 17.7718 46.1137 16.8793 45.6058 16.2047C45.0978 15.53 44.316 15.1927 43.2603 15.1927C42.2437 15.1927 41.4719 15.53 40.9448 16.2047C40.4177 16.8793 40.1538 17.7718 40.153 18.8821V47.4417C40.153 48.5534 40.4169 49.4462 40.9448 50.1202C41.4726 50.7941 42.2445 51.1311 43.2603 51.1311C44.316 51.1311 45.0978 50.7941 45.6058 50.1202C46.1137 49.4462 46.3677 48.5534 46.3677 47.4417V36.0753H43.6253V32.5047H50.6328V47.7992C50.6328 50.0205 49.9523 51.7759 48.5914 53.0655C47.2306 54.355 45.4535 54.9998 43.2603 54.9998C41.1062 54.9998 39.3495 54.355 37.9901 53.0655C36.6306 51.7759 35.9502 50.0205 35.9487 47.7992V18.5192C35.9487 16.2986 36.6292 14.5432 37.9901 13.2529C39.3509 11.9626 41.1077 11.3189 43.2603 11.3218C45.4528 11.3218 47.2298 11.9666 48.5914 13.2561C49.9531 14.5457 50.6335 16.3011 50.6328 18.5224V25.9618L46.3677 25.9585Z" fill="black"/>
<path d="M66.2477 32.5273H59.5498V36.098H66.2477V32.5273Z" fill="black"/>
<path d="M60.0157 29.589V27.8004V11.9141H55.8125V54.4051H60.0157V34.2051V33.1596V29.589Z" fill="black"/>
<path d="M66.1094 11.9141V27.8004V29.589V33.1596V34.2051V54.4051H70.3126V11.9141H66.1094Z" fill="black"/>
<path d="M75.7969 12H79.999V54.4911H75.7969V12Z" fill="black"/>
<path d="M29.8092 1.93436C28.4483 0.645506 26.6713 0.000720029 24.4781 0C22.3255 0 20.5687 0.644786 19.2078 1.93436C17.8469 3.22393 17.1665 4.97936 17.1665 7.20065V54.405H21.3686V7.55814C21.3686 6.44786 21.6325 5.55502 22.1603 4.87964C22.6882 4.20425 23.4608 3.86764 24.4781 3.8698C25.5345 3.8698 26.3163 4.20677 26.8235 4.88071C27.3307 5.55466 27.5847 6.4475 27.5854 7.55922V54.405H31.8505V7.20065C31.8505 4.98008 31.1701 3.22465 29.8092 1.93436Z" fill="black"/>
</svg>
